<svg width="29px" height="29px" viewBox="0 0 29 29" version="1.1" xmlns="http://www.w3.org/2000/svg"
     xmlns:xlink="http://www.w3.org/1999/xlink">
    <g id="UI" stroke="none" stroke-width="1" fill="none" fill-rule="evenodd">
        <g id="Dashboard" transform="translate(-688.000000, -947.000000)">
            <g id="Performance_Stats" transform="translate(189.000000, 755.000000)">
                <g id="Add-Icon" transform="translate(500.000000, 193.000000)">
                    <circle id="Oval-5-Copy" stroke-opacity="0.299422554" stroke="#C2C2C2" stroke-width="1.6"
                            fill-opacity="0.5" fill="#FFFFFF" cx="13.5" cy="13.5" r="13.5"></circle>
                    <path d="M18.6347088,13.4714638 L14.3226668,13.4714638 L14.3226668,9.15971025 C14.3226668,8.92518104 14.1326169,8.73529412 13.8983949,8.73529412 C13.6637014,8.73529412 13.4738087,8.92518104 13.4738087,9.15971025 L13.4738087,13.4714638 L9.15988037,13.4714638 C8.92518682,13.4714638 8.73529412,13.6613507 8.73529412,13.8958799 C8.73529412,14.1302519 8.92518682,14.3201388 9.15988037,14.3201388 L13.4738087,14.3201388 L13.4738087,18.6345646 C13.4738087,18.8687794 13.6637014,19.0588235 13.8983949,19.0588235 C14.1326169,19.0588235 14.3226668,18.8687794 14.3226668,18.6345646 L14.3226668,14.3201388 L18.6347088,14.3201388 C18.8689307,14.3201388 19.0588234,14.1302519 19.0588234,13.8958799 C19.0589806,13.6613507 18.8690879,13.4714638 18.6347088,13.4714638"
                          id="Fill-1" stroke="#EB003E" stroke-width="0.8" fill="#EB003E"></path>
                </g>
            </g>
        </g>
    </g>
</svg>
