<svg xmlns="http://www.w3.org/2000/svg" xmlns:xlink="http://www.w3.org/1999/xlink" width="110" height="37"
     viewBox="0 0 110 37">
    <defs>
        <path id="4tnka"
              d="M1151 643.5a18.5 18.5 0 0 1 18.5-18.5h73a18.5 18.5 0 1 1 0 37h-73a18.5 18.5 0 0 1-18.5-18.5z"/>
        <path id="4tnkb"
              d="M1174.77 642.95c-.03-2.6 2.18-3.86 2.28-3.92a4.95 4.95 0 0 0-3.87-2.04c-1.62-.17-3.2.95-4.03.95-.84 0-2.12-.94-3.5-.9a5.17 5.17 0 0 0-4.33 2.57c-1.87 3.17-.48 7.82 1.32 10.38.9 1.25 1.95 2.65 3.32 2.6 1.34-.05 1.85-.84 3.47-.84 1.6 0 2.08.84 3.48.8 1.44-.01 2.35-1.25 3.22-2.52a10.22 10.22 0 0 0 1.47-2.92 4.54 4.54 0 0 1-2.83-4.16"/>
        <path id="4tnkc"
              d="M1172.12 635.3a4.53 4.53 0 0 0 1.08-3.3c-1.05.05-2.35.7-3.1 1.57-.67.76-1.27 2-1.12 3.18a4.01 4.01 0 0 0 3.14-1.45"/>
        <path id="4tnkd"
              d="M1191.55 648.07l-.94-2.91c-.1-.3-.28-1-.56-2.1h-.03a89.9 89.9 0 0 1-.53 2.1l-.92 2.91h2.98zm3.25 4.65h-1.9l-1.04-3.28h-3.6l-1 3.28h-1.84l3.58-11.15h2.2l3.6 11.15z"/>
        <path id="4tnke"
              d="M1202.17 648.67c0-.78-.18-1.43-.53-1.93-.39-.53-.9-.8-1.55-.8-.44 0-.84.15-1.2.44-.36.3-.6.68-.7 1.15-.06.22-.08.4-.08.54v1.35c0 .58.18 1.07.53 1.48.36.4.83.6 1.4.6.67 0 1.2-.26 1.56-.78.38-.51.57-1.2.57-2.05zm1.8-.06c0 1.36-.37 2.44-1.1 3.24a3.25 3.25 0 0 1-2.48 1.06c-1.06 0-1.82-.38-2.28-1.14v4.21h-1.78v-8.65c0-.86-.03-1.74-.07-2.64h1.57l.1 1.27h.03c.6-.96 1.5-1.44 2.7-1.44.95 0 1.73.37 2.37 1.12.63.76.94 1.74.94 2.97z"/>
        <path id="4tnkf"
              d="M1211.38 648.67c0-.78-.18-1.43-.53-1.93-.38-.53-.9-.8-1.55-.8-.44 0-.84.15-1.2.44-.35.3-.58.68-.7 1.15-.05.22-.08.4-.08.54v1.35c0 .58.18 1.07.54 1.48.36.4.82.6 1.4.6.66 0 1.19-.26 1.56-.78.37-.51.56-1.2.56-2.05zm1.81-.06c0 1.36-.37 2.44-1.1 3.24a3.25 3.25 0 0 1-2.48 1.06c-1.06 0-1.82-.38-2.28-1.14v4.21h-1.78v-8.65c0-.86-.03-1.74-.07-2.64h1.57l.1 1.27h.03c.59-.96 1.5-1.44 2.7-1.44.94 0 1.73.37 2.37 1.12.63.76.94 1.74.94 2.97z"/>
        <path id="4tnkg"
              d="M1223.49 649.6c0 .95-.33 1.72-.99 2.31-.72.65-1.73.98-3.02.98-1.2 0-2.16-.23-2.88-.7l.41-1.48c.78.46 1.64.7 2.57.7.67 0 1.2-.16 1.57-.46.37-.3.56-.71.56-1.22 0-.45-.16-.83-.46-1.14-.31-.3-.82-.6-1.53-.86-1.95-.73-2.92-1.8-2.92-3.2 0-.9.34-1.66 1.03-2.24.68-.59 1.6-.88 2.72-.88 1.01 0 1.86.18 2.53.53l-.45 1.46a4.4 4.4 0 0 0-2.14-.52c-.62 0-1.12.16-1.47.47-.3.27-.45.6-.45 1 0 .45.18.81.52 1.1.3.26.83.55 1.61.86.96.38 1.66.84 2.11 1.35.45.52.68 1.17.68 1.94"/>
        <path id="4tnkh"
              d="M1229.39 646.03h-1.96v3.9c0 1 .34 1.49 1.03 1.49.32 0 .59-.03.8-.09l.04 1.36c-.35.13-.8.2-1.38.2-.7 0-1.25-.22-1.65-.65-.4-.43-.6-1.15-.6-2.17v-4.05h-1.16v-1.34h1.17v-1.47l1.75-.53v2h1.96v1.35"/>
        <path id="4tnki"
              d="M1236.37 648.68c0-.73-.16-1.37-.47-1.9-.38-.64-.91-.95-1.6-.95-.71 0-1.26.31-1.63.95a3.67 3.67 0 0 0-.48 1.94c0 .73.16 1.37.48 1.9.38.64.92.96 1.62.96.67 0 1.2-.33 1.6-.98.32-.54.48-1.18.48-1.92zm1.86-.04c0 1.23-.36 2.25-1.06 3.04a3.76 3.76 0 0 1-2.93 1.22c-1.18 0-2.12-.39-2.81-1.17a4.28 4.28 0 0 1-1.05-2.96c0-1.24.36-2.27 1.08-3.06.72-.8 1.69-1.19 2.9-1.19 1.18 0 2.13.4 2.84 1.17a4.23 4.23 0 0 1 1.03 2.95z"/>
        <path id="4tnkj"
              d="M1244 646.26a3.09 3.09 0 0 0-.55-.05c-.63 0-1.11.23-1.45.71-.3.42-.45.95-.45 1.59v4.22h-1.78v-5.51c0-.93-.02-1.77-.05-2.53h1.55l.07 1.53h.04c.2-.52.49-.95.9-1.27.4-.29.82-.43 1.28-.43.16 0 .31.01.45.03v1.7"/>
        <path id="4tnkk"
              d="M1250.26 647.86c.01-.53-.1-.98-.34-1.37-.31-.5-.78-.75-1.42-.75-.58 0-1.05.25-1.4.73-.3.39-.48.85-.53 1.39h3.7zm1.7.47c0 .32-.01.59-.06.8h-5.33c.01.8.27 1.41.77 1.83.45.37 1.03.56 1.75.56.79 0 1.5-.12 2.16-.38l.27 1.24c-.75.33-1.65.5-2.68.5a3.88 3.88 0 0 1-2.93-1.1 4.08 4.08 0 0 1-1.06-2.95c0-1.22.33-2.23.99-3.03a3.4 3.4 0 0 1 2.8-1.29c1.15 0 2.03.43 2.62 1.29.47.68.7 1.53.7 2.53z"/>
        <path id="4tnkl"
              d="M1188.44 636.07l-.46-1.49c-.05-.15-.14-.5-.28-1.08h-.02l-.26 1.08-.46 1.5h1.48zm1.6 2.39h-.93l-.51-1.68h-1.79l-.49 1.68h-.91l1.77-5.72h1.09l1.78 5.72z"/>
        <path id="4tnkm"
              d="M1194.46 634.34l-1.5 4.12h-.85l-1.45-4.12h.95l.67 2.18c.12.37.21.71.29 1.04h.02c.07-.3.16-.64.28-1.04l.67-2.18h.92"/>
        <path id="4tnkn"
              d="M1197.52 636.4c-.97 0-1.46.25-1.46.84 0 .43.26.64.6.64.45 0 .86-.36.86-.84v-.64zm.13 2.06l-.07-.48h-.02c-.27.39-.66.57-1.16.57-.7 0-1.21-.52-1.21-1.21 0-1.02.85-1.55 2.31-1.55v-.07c0-.54-.27-.82-.82-.82-.4 0-.73.1-1.03.3l-.18-.6c.36-.23.82-.35 1.36-.35 1.03 0 1.55.57 1.55 1.7v1.52c0 .42.02.74.06.99h-.79z"/>
        <path id="4tnko"
              d="M1199.93 634.33h.88v4.14h-.88zm.42-.68c-.3 0-.52-.23-.52-.55 0-.31.24-.54.54-.54.3 0 .54.23.54.54 0 .33-.23.55-.56.55z"/>
        <path id="4tnkp" d="M1202.37 632.45h.88v6.02h-.88z"/>
        <path id="4tnkq"
              d="M1206.87 636.4c-.98 0-1.47.25-1.47.83 0 .43.25.64.6.64.45 0 .87-.35.87-.83v-.63zm.12 2.06l-.07-.48h-.02c-.27.39-.66.57-1.16.57-.7 0-1.21-.52-1.21-1.21 0-1.02.85-1.55 2.31-1.55v-.07c0-.54-.27-.82-.82-.82-.39 0-.73.1-1.03.31l-.18-.6c.36-.24.82-.36 1.36-.36 1.03 0 1.55.57 1.55 1.7v1.52c0 .42.02.74.06.99h-.79z"/>
        <path id="4tnkr"
              d="M1211.1 634.97c-.5 0-.97.46-.97 1.1v.72c0 .57.42 1.04.96 1.04.66 0 1.05-.56 1.05-1.45 0-.84-.41-1.4-1.04-1.4zm.18 3.59c-.56 0-.97-.25-1.24-.73h-.02l-.05.64h-.75c.02-.34.03-.71.03-1.12v-4.9h.88v2.5h.02c.26-.46.68-.7 1.26-.7.95 0 1.62.86 1.62 2.1 0 1.27-.74 2.2-1.75 2.2z"/>
        <path id="4tnks" d="M1214.34 632.45h.88v6.02h-.88z"/>
        <path id="4tnkt"
              d="M1219.2 635.95c0-.63-.32-1.07-.88-1.07-.5 0-.9.45-.96 1.07h1.83zm.8.67h-2.64c.02.78.51 1.22 1.24 1.22.4 0 .75-.07 1.07-.2l.14.64c-.38.17-.82.25-1.33.25-1.24 0-1.97-.81-1.97-2.08 0-1.26.75-2.21 1.87-2.21 1.01 0 1.65.78 1.65 1.96 0 .16 0 .3-.03.42z"/>
        <path id="4tnku"
              d="M1225.37 634.92c-.64 0-1.04.62-1.04 1.48 0 .85.41 1.47 1.03 1.47.62 0 1.04-.66 1.04-1.48 0-.84-.41-1.47-1.03-1.47zm-.03 3.63c-1.16 0-1.91-.9-1.91-2.12 0-1.27.77-2.18 1.97-2.18 1.14 0 1.9.86 1.9 2.11 0 1.3-.78 2.2-1.96 2.2z"/>
        <path id="4tnkv"
              d="M1232.04 638.46h-.88v-2.37c0-.73-.27-1.1-.8-1.1-.52 0-.88.47-.88 1.02v2.45h-.88v-2.95c0-.36 0-.75-.03-1.18h.77l.04.64h.03a1.4 1.4 0 0 1 1.25-.72c.83 0 1.38.66 1.38 1.74v2.47"/>
        <path id="4tnkw"
              d="M1237.79 635.02h-.97v2c0 .52.17.77.51.77.16 0 .29-.02.4-.04l.02.7c-.17.06-.4.1-.69.1-.69 0-1.1-.4-1.1-1.45v-2.08h-.58v-.68h.58v-.76l.86-.27v1.03h.97v.68"/>
        <path id="4tnkx"
              d="M1242.45 638.47h-.88v-2.35c0-.74-.27-1.12-.8-1.12-.46 0-.88.33-.88.98v2.49h-.88v-6.02h.88v2.48h.02c.27-.45.67-.67 1.19-.67.83 0 1.35.67 1.35 1.75v2.46"/>
        <path id="4tnky"
              d="M1246.13 635.95c0-.63-.3-1.07-.87-1.07-.5 0-.9.45-.96 1.07h1.83zm.8.67h-2.63c.02.78.51 1.22 1.24 1.22.4 0 .76-.07 1.07-.2l.14.64c-.38.17-.82.25-1.33.25-1.24 0-1.97-.81-1.97-2.08 0-1.26.75-2.21 1.87-2.21 1.01 0 1.65.78 1.65 1.96 0 .16 0 .3-.03.42z"/>
    </defs>
    <g>
        <g transform="translate(-1151 -625)">
            <g>
                <use xlink:href="#4tnka"/>
            </g>
            <g>
                <g>
                    <use fill="#fff" xlink:href="#4tnkb"/>
                </g>
                <g>
                    <use fill="#fff" xlink:href="#4tnkc"/>
                </g>
            </g>
            <g>
                <g>
                    <use fill="#fff" xlink:href="#4tnkd"/>
                </g>
                <g>
                    <use fill="#fff" xlink:href="#4tnke"/>
                </g>
                <g>
                    <use fill="#fff" xlink:href="#4tnkf"/>
                </g>
                <g>
                    <use fill="#fff" xlink:href="#4tnkg"/>
                </g>
                <g>
                    <use fill="#fff" xlink:href="#4tnkh"/>
                </g>
                <g>
                    <use fill="#fff" xlink:href="#4tnki"/>
                </g>
                <g>
                    <use fill="#fff" xlink:href="#4tnkj"/>
                </g>
                <g>
                    <use fill="#fff" xlink:href="#4tnkk"/>
                </g>
            </g>
            <g>
                <g>
                    <use fill="#fff" xlink:href="#4tnkl"/>
                </g>
                <g>
                    <use fill="#fff" xlink:href="#4tnkm"/>
                </g>
                <g>
                    <use fill="#fff" xlink:href="#4tnkn"/>
                </g>
                <g>
                    <use fill="#fff" xlink:href="#4tnko"/>
                </g>
                <g>
                    <use fill="#fff" xlink:href="#4tnkp"/>
                </g>
                <g>
                    <use fill="#fff" xlink:href="#4tnkq"/>
                </g>
                <g>
                    <use fill="#fff" xlink:href="#4tnkr"/>
                </g>
                <g>
                    <use fill="#fff" xlink:href="#4tnks"/>
                </g>
                <g>
                    <use fill="#fff" xlink:href="#4tnkt"/>
                </g>
                <g>
                    <use fill="#fff" xlink:href="#4tnku"/>
                </g>
                <g>
                    <use fill="#fff" xlink:href="#4tnkv"/>
                </g>
                <g>
                    <use fill="#fff" xlink:href="#4tnkw"/>
                </g>
                <g>
                    <use fill="#fff" xlink:href="#4tnkx"/>
                </g>
                <g>
                    <use fill="#fff" xlink:href="#4tnky"/>
                </g>
            </g>
        </g>
    </g>
</svg>
