<svg xmlns="http://www.w3.org/2000/svg" xmlns:xlink="http://www.w3.org/1999/xlink" width="106" height="36"
     viewBox="0 0 106 36">
    <defs>
        <path id="2em3c" d="M1022 643a18 18 0 0 1 18-18h70a18 18 0 1 1 0 36h-70a18 18 0 0 1-18-18z"/>
        <path id="2em3d"
              d="M1034.69 642.57l-7.8-4.4c-.44-.25-.87-.1-.87.4v17.94c0 .38.3.55.69.34l7.98-4.5 1.55-.88 2.5-1.4 3.89-2.2c.45-.26.4-.61.02-.81-.38-.2-3.91-2.21-3.91-2.21z"/>
        <path id="2em3a"
              d="M1036.06 647.42s-9.73-9.35-9.7-9.35c-.22.05-.36.23-.36.52v17.89c0 .25.1.4.22.44.03 0 9.84-9.5 9.84-9.5z"/>
        <path id="2em3b" d="M1026.87 638.16a.72.72 0 0 0-.52-.1l9.7 9.37 2.69-2.58-4.05-2.28-6.12-3.45z"/>
        <path id="2em3j"
              d="M1092.44 645.4c.31-.12.48-.22.48-.46 0-.67-.75-1.45-1.64-1.45-.66 0-1.9.52-1.9 2.35 0 .28.04.59.06.9l3-1.34zm2.4 4.3l-.8.76c-.19.1-.37.22-.56.3-.55.26-1.11.32-1.61.32-.53 0-1.37-.03-2.22-.66a4.37 4.37 0 0 1-1.7-3.55 3.8 3.8 0 0 1 3.82-3.89c.6 0 1.21.15 1.71.47.84.56 1.05 1.28 1.17 1.67l-3.92 1.6-1.28.1c.42 2.14 1.85 3.39 3.43 3.39.8 0 1.38-.26 1.92-.53 0 0 .1-.06.03.02z"/>
        <path id="2em3k"
              d="M1086.65 649.6c0 .66.12.76.66.81l.85.08-.61.37h-2.93c.38-.5.45-.55.45-.89V639.6h-1.3l1.24-.6h2.38c-.52.3-.67.49-.74 1.07v9.54"/>
        <path id="2em3l"
              d="M1081.42 648.01c-.26.27-.7.47-1.12.47-1.42 0-2.07-1.86-2.07-2.98 0-.44.08-.89.36-1.24.27-.34.73-.55 1.16-.55 1.37 0 2.08 1.87 2.08 3.08 0 .3-.03.84-.41 1.22zm-.47 3.24c1.27.92 1.82 1.38 1.82 2.26 0 1.06-.85 1.84-2.46 1.84-1.79 0-2.94-.87-2.94-2.08 0-1.22 1.07-1.63 1.44-1.77a6.5 6.5 0 0 1 1.75-.27c.17 0 .25 0 .39.02zm1.16-7.44h1.03l1.07-.61h-3.42c-.9 0-2.02.14-2.97.92a3.03 3.03 0 0 0-1.06 2.26c0 1.3 1 2.64 2.75 2.64.17 0 .35-.02.53-.04-.08.2-.16.37-.16.66 0 .52.26.84.5 1.14-.75.05-2.14.14-3.17.77a2.42 2.42 0 0 0-1.28 2.05c0 1.24 1.16 2.4 3.56 2.4 2.86 0 4.37-1.59 4.37-3.17 0-1.16-.67-1.73-1.4-2.35l-.6-.47c-.18-.15-.43-.36-.43-.73 0-.36.25-.6.47-.82.7-.55 1.39-1.14 1.39-2.39 0-1.27-.8-1.95-1.18-2.26z"/>
        <path id="2em3m"
              d="M1073.85 649.71c.4-.54.5-1.22.5-1.88 0-1.5-.7-4.34-2.77-4.34-.55 0-1.1.22-1.5.57-.65.6-.77 1.34-.77 2.07 0 1.68.82 4.45 2.84 4.45.65 0 1.32-.33 1.7-.87zm-2.07 1.37a3.95 3.95 0 0 1-4.05-3.99 4.15 4.15 0 0 1 4.3-4.11 3.92 3.92 0 0 1 3.98 4c0 1.99-1.52 4.1-4.23 4.1z"/>
        <path id="2em3n"
              d="M1064.99 649.71c.4-.54.5-1.22.5-1.88 0-1.5-.7-4.34-2.77-4.34-.55 0-1.1.22-1.5.57-.65.6-.77 1.34-.77 2.07 0 1.68.82 4.45 2.84 4.45.65 0 1.32-.33 1.7-.87zm-2.07 1.37a3.95 3.95 0 0 1-4.05-3.99 4.15 4.15 0 0 1 4.3-4.11 3.92 3.92 0 0 1 3.98 4c0 1.99-1.52 4.1-4.23 4.1z"/>
        <path id="2em3o"
              d="M1057.78 650.58l-2.24.52c-.9.14-1.72.27-2.58.27a5.6 5.6 0 0 1-5.96-5.73c0-3.07 2.33-5.92 6.32-5.92.84 0 1.65.13 2.4.33 1.17.33 1.72.74 2.06.98l-1.3 1.25-.55.13.4-.63c-.54-.53-1.51-1.5-3.36-1.5-2.46 0-4.33 1.9-4.33 4.68 0 2.97 2.13 5.77 5.54 5.77 1 0 1.52-.2 1.99-.39v-2.55l-2.37.13 1.26-.68h3.31l-.4.4c-.11.09-.13.12-.16.24-.02.15-.03.6-.03.77v1.93"/>
        <path id="2em3p"
              d="M1105 647.17c0-1.93-1-3.4-2.74-3.4-1.1 0-2.13.87-2.59 1.63v3.52c.46.76 1.5 1.66 2.59 1.66 1.75 0 2.74-1.48 2.74-3.41zm-5.35 2.6v4.28h-.84v-10.87h.84v1.23a3.34 3.34 0 0 1 2.72-1.43c2.09 0 3.5 1.6 3.5 4.12 0 2.51-1.41 4.14-3.5 4.14-1.1 0-2.09-.57-2.72-1.46z"/>
        <path id="2em3q" d="M1107.02 640.16h.86v10.92h-.86z"/>
        <path id="2em3r"
              d="M1117.26 653.3c.19.07.5.12.69.12.51 0 .87-.21 1.2-.96l.6-1.4-3.31-7.94h.94l2.85 6.88 2.81-6.88h.96l-4.05 9.6c-.42 1-1.08 1.47-1.99 1.47a3.3 3.3 0 0 1-.84-.12l.14-.78"/>
        <path id="2em3s"
              d="M1111.89 650.5c.71 0 1.23-.17 1.76-.49.52-.32.87-.74 1.06-1.24v-1.52h-1.98c-.75 0-1.38.17-1.87.5-.5.35-.74.76-.74 1.24 0 .45.15.82.47 1.09.31.28.75.41 1.3.41zm3 .57c-.05-.27-.1-.52-.12-.72-.03-.2-.04-.4-.04-.61-.3.43-.7.78-1.23 1.06-.53.29-1.03.43-1.71.43-.83 0-1.47-.2-1.93-.62a2.17 2.17 0 0 1-.68-1.69c0-.7.33-1.28 1-1.72a4.55 4.55 0 0 1 2.57-.67h1.98v-.98c0-.57-.2-1.01-.58-1.33a2.44 2.44 0 0 0-1.62-.5c-.64 0-1.16.16-1.55.45-.4.3-.59.66-.59 1.1h-.87l-.01-.04c-.04-.6.24-1.12.81-1.57a3.54 3.54 0 0 1 2.26-.68c.92 0 1.67.22 2.23.67.56.44.85 1.08.85 1.92v3.9a6.24 6.24 0 0 0 .21 1.6h-.97z"/>
        <path id="2em3t"
              d="M1047 633.52c0-1.5 1.23-2.46 2.75-2.46 1.02 0 1.7.44 2.1.98l-.74.4a1.75 1.75 0 0 0-1.36-.64c-1.04 0-1.8.71-1.8 1.72 0 .99.76 1.71 1.8 1.71a2 2 0 0 0 1.24-.42v-.74h-1.57v-.73h2.49v1.77c-.52.52-1.25.87-2.16.87-1.52 0-2.75-.97-2.75-2.46"/>
        <path id="2em3u" d="M1053.1 635.92v-4.78h3.64v.74h-2.7v1.23h2.65v.74h-2.66v1.33h2.71v.74h-3.64"/>
        <path id="2em3v" d="M1059.21 635.92v-4.04h-1.58v-.74h4.09v.74h-1.59v4.04h-.92"/>
        <path id="2em3w" d="M1064.99 631.14h.9v4.78h-.9z"/>
        <path id="2em3x" d="M1068.44 635.92v-4.04h-1.59v-.74h4.09v.74h-1.59v4.04h-.91"/>
        <path id="2em3y"
              d="M1078.44 633.49c0-.98-.69-1.7-1.75-1.7s-1.74.72-1.74 1.7c0 .97.68 1.7 1.74 1.7s1.75-.73 1.75-1.7zm-4.46.03c0-1.42 1.12-2.46 2.71-2.46 1.59 0 2.72 1.04 2.72 2.46s-1.13 2.46-2.72 2.46c-1.59 0-2.71-1.04-2.71-2.46z"/>
        <path id="2em3z" d="M1084.1 635.92l-2.73-3.42v3.42h-.92v-4.78h.94l2.68 3.31v-3.31h.91v4.78h-.88"/>
        <linearGradient id="2em3e" x1="1036" x2="1041.4" y1="639.86" y2="649.54" gradientUnits="userSpaceOnUse">
            <stop offset="0" stop-color="#ff177b"/>
            <stop offset="1" stop-color="#ffec73"/>
        </linearGradient>
        <linearGradient id="2em3f" x1="1029.73" x2="1026" y1="629.76" y2="657.13" gradientUnits="userSpaceOnUse">
            <stop offset="0" stop-color="#064aa2"/>
            <stop offset="1" stop-color="#63ffd4"/>
        </linearGradient>
        <linearGradient id="2em3h" x1="1026.35" x2="1034.31" y1="635.78" y2="647.43" gradientUnits="userSpaceOnUse">
            <stop offset="0" stop-color="#00a3b5"/>
            <stop offset="1" stop-color="#d6ffa1"/>
        </linearGradient>
        <clipPath id="2em3g">
            <use xlink:href="#2em3a"/>
        </clipPath>
        <clipPath id="2em3i">
            <use xlink:href="#2em3b"/>
        </clipPath>
    </defs>
    <g>
        <g transform="translate(-1022 -625)">
            <use xlink:href="#2em3c"/>
        </g>
        <g transform="translate(-1022 -625)">
            <use fill="url(#2em3e)" xlink:href="#2em3d"/>
        </g>
        <g transform="translate(-1022 -625)">
            <g>
                <use fill="url(#2em3f)" xlink:href="#2em3a"/>
            </g>
            <g clip-path="url(#2em3g)"/>
        </g>
        <g transform="translate(-1022 -625)"/>
        <g transform="translate(-1022 -625)">
            <g>
                <use fill="url(#2em3h)" xlink:href="#2em3b"/>
            </g>
            <g clip-path="url(#2em3i)"/>
        </g>
        <g transform="translate(-1022 -625)">
            <g>
                <use fill="#fff" xlink:href="#2em3j"/>
            </g>
            <g>
                <use fill="#fff" xlink:href="#2em3k"/>
            </g>
            <g>
                <use fill="#fff" xlink:href="#2em3l"/>
            </g>
            <g>
                <use fill="#fff" xlink:href="#2em3m"/>
            </g>
            <g>
                <use fill="#fff" xlink:href="#2em3n"/>
            </g>
            <g>
                <use fill="#fff" xlink:href="#2em3o"/>
            </g>
            <g>
                <use fill="#fff" xlink:href="#2em3p"/>
            </g>
            <g>
                <use fill="#fff" xlink:href="#2em3q"/>
            </g>
            <g>
                <use fill="#fff" xlink:href="#2em3r"/>
            </g>
            <g>
                <use fill="#fff" xlink:href="#2em3s"/>
            </g>
        </g>
        <g transform="translate(-1022 -625)">
            <g>
                <use fill="#fff" xlink:href="#2em3t"/>
            </g>
            <g>
                <use fill="#fff" xlink:href="#2em3u"/>
            </g>
            <g>
                <use fill="#fff" xlink:href="#2em3v"/>
            </g>
            <g>
                <use fill="#fff" xlink:href="#2em3w"/>
            </g>
            <g>
                <use fill="#fff" xlink:href="#2em3x"/>
            </g>
            <g>
                <use fill="#fff" xlink:href="#2em3y"/>
            </g>
            <g>
                <use fill="#fff" xlink:href="#2em3z"/>
            </g>
        </g>
    </g>
</svg>
