<svg id="SVGDoc" width="18" height="18" xmlns="http://www.w3.org/2000/svg" version="1.1"
     xmlns:xlink="http://www.w3.org/1999/xlink" xmlns:avocode="https://avocode.com/" viewBox="0 0 18 18">
    <defs>
        <path d="M451.996,1011.38598c2.8762,0 5.216,-2.11419 5.216,-4.71318c0,-0.1368 -0.0588,-0.259 -0.1514,-0.3454c-0.0866,-0.1132 -0.2216,-0.1874 -0.3752,-0.1874h-9.37879c-0.1536,0 -0.2886,0.0742 -0.3752,0.1874c-0.0926,0.0864 -0.1514,0.2088 -0.1514,0.3454c0,2.59899 2.3398,4.71318 5.216,4.71318zM456.24727,1007.08559c-0.23482,1.88402 -2.04916,3.355 -4.24627,3.355c-2.1971,0 -4.01144,-1.47078 -4.24627,-3.355z"
              id="Path-0"/>
        <path d="M447.8038,1002.81515c0.2616,0 0.4736,-0.21199 0.4736,-0.47359c0,-0.33319 0.271,-0.60419 0.6042,-0.60419c0.3332,0 0.6042,0.27099 0.6044,0.60419c0,0.26159 0.212,0.47359 0.4736,0.47359c0.2616,0 0.4736,-0.21199 0.4736,-0.47359c0,-0.85558 -0.696,-1.55156 -1.5516,-1.55156c-0.8556,0 -1.5516,0.69598 -1.5516,1.55156c0.0002,0.26159 0.2122,0.47359 0.4738,0.47359"
              id="Path-1"/>
        <path d="M454.0438,1002.81515c0.2618,0 0.4736,-0.21199 0.4736,-0.47359c0,-0.33319 0.271,-0.60419 0.6042,-0.60419c0.3332,0 0.6042,0.27099 0.6044,0.60419c0,0.26159 0.212,0.47359 0.4736,0.47359c0.2616,0 0.4736,-0.21199 0.4736,-0.47359c0,-0.85558 -0.696,-1.55156 -1.5516,-1.55156c-0.8556,0 -1.5516,0.69598 -1.5516,1.55156c0,0.26159 0.2122,0.47359 0.4738,0.47359"
              id="Path-2"/>
        <path d="M443,996h18v17.99996h-18z" id="Path-3"/>
        <path d="M452,1014c4.9626,0 9,-4.0372 9,-9c0,-4.9626 -4.0374,-9 -9,-9c-4.9626,0 -9,4.0374 -9,9c0,4.9628 4.0374,9 9,9M451.995,996.9474c4.43744,0 8.0476,3.61016 8.0476,8.0476c0,4.43744 -3.61016,8.0476 -8.0476,8.0476c-4.43744,0 -8.0476,-3.61016 -8.0476,-8.0476c0,-4.43744 3.61016,-8.0476 8.0476,-8.0476"
              id="Path-4"/>
        <clipPath id="clip-CA7C7BD7-162F-41D5-9E4B-1EDBDD732F37">
            <use xlink:href="#Path-3"/>
        </clipPath>
    </defs>
    <desc>Generated with Avocode.</desc>
    <g transform="matrix(1,0,0,1,-443,-996)">
        <g>
            <title>Page 1</title>
            <g>
                <title>Fill 1</title>
                <use xlink:href="#Path-0" fill="#6f6e8d" fill-opacity="1"/>
            </g>
            <g>
                <title>Fill 3</title>
                <use xlink:href="#Path-1" fill="#6f6e8d" fill-opacity="1"/>
            </g>
            <g>
                <title>Fill 5</title>
                <use xlink:href="#Path-2" fill="#6f6e8d" fill-opacity="1"/>
            </g>
            <g>
                <title>Group 9</title>
                <g>
                    <title>Clip 8</title>
                </g>
                <g clip-path="url(#clip-CA7C7BD7-162F-41D5-9E4B-1EDBDD732F37)">
                    <title>Fill 7</title>
                    <use xlink:href="#Path-4" fill="#6f6e8d" fill-opacity="1"/>
                </g>
            </g>
        </g>
    </g>
</svg>
