<svg xmlns="http://www.w3.org/2000/svg" xmlns:xlink="http://www.w3.org/1999/xlink" width="38" height="27"
     viewBox="0 0 38 27">
    <defs>
        <path id="8i6la"
              d="M577.58 419.5a.52.52 0 0 1-.52-.5c0-.29.24-.51.52-.51h5.2a.5.5 0 0 1 .52.5c0 .29-.23.51-.51.51z"/>
        <path id="8i6lb"
              d="M577.58 415.26a.52.52 0 0 1-.52-.5c0-.28.24-.52.52-.52H588c.28 0 .51.24.51.51 0 .29-.23.51-.5.51z"/>
        <path id="8i6lc"
              d="M577.58 411.04a.52.52 0 0 1-.52-.52c0-.28.24-.52.52-.52H588c.28 0 .51.24.51.52 0 .29-.23.52-.5.52z"/>
        <path id="8i6ld"
              d="M558.85 400.28a1.53 1.53 0 0 0-1.56 1.53v21.37a1.54 1.54 0 0 0 1.56 1.52h32.26c.43 0 .82-.16 1.1-.44.28-.27.46-.66.46-1.08V401.8c0-.42-.18-.81-.46-1.09a1.56 1.56 0 0 0-1.1-.44z"/>
        <path id="8i6le"
              d="M561.3 404.29c-.16 0-.3.1-.4.28-.11.17-.18.42-.18.69v13.52c0 .26.07.5.17.68.1.18.26.28.41.28h12.1c.15 0 .3-.1.4-.28.11-.17.18-.42.18-.68v-13.52c0-.27-.07-.52-.17-.7-.11-.17-.26-.27-.42-.27z"/>
        <path id="8i6lf"
              d="M577.58 406.8a.52.52 0 0 1-.52-.52c0-.28.24-.52.52-.52H588c.28 0 .51.24.51.52 0 .29-.23.52-.5.52z"/>
        <path id="8i6lg" d="M572.85 419.48a5.56 5.56 0 0 0-1.65-3.33 5.74 5.74 0 0 0-9.68 3.33z"/>
        <path id="8i6lh"
              d="M568.97 409.76a2.58 2.58 0 0 0-3.58 0 2.45 2.45 0 0 0-.04 3.48l.04.04a2.58 2.58 0 0 0 3.58 0 2.45 2.45 0 0 0 0-3.52"/>
    </defs>
    <g>
        <g transform="translate(-556 -399)">
            <g>
                <use fill="#036da1" xlink:href="#8i6la"/>
            </g>
            <g>
                <use fill="#036da1" xlink:href="#8i6lb"/>
            </g>
            <g>
                <use fill="#036da1" xlink:href="#8i6lc"/>
            </g>
            <g>
                <use fill="#fff" fill-opacity="0" stroke="#adc9f0" stroke-miterlimit="50" stroke-width=".72"
                     xlink:href="#8i6ld"/>
            </g>
            <g>
                <use fill="#fff" fill-opacity="0" stroke="#183e7a" stroke-miterlimit="50" stroke-width=".72"
                     xlink:href="#8i6le"/>
            </g>
            <g>
                <use fill="#036da1" xlink:href="#8i6lf"/>
            </g>
            <g>
                <use fill="#183e7a" xlink:href="#8i6lg"/>
            </g>
            <g>
                <use fill="#183e7a" xlink:href="#8i6lh"/>
            </g>
        </g>
    </g>
</svg>
