<svg xmlns="http://www.w3.org/2000/svg" xmlns:xlink="http://www.w3.org/1999/xlink" width="25" height="25"
     viewBox="0 0 25 25">
    <defs>
        <path id="bqf3a"
              d="M316.03 171.51c1.99 0 3.84-.52 5.42-1.41 1.4.84 2.93.81 3.8.68.25-.03.3-.37.1-.5a3.95 3.95 0 0 1-1.58-2.04 8.04 8.04 0 0 0 2.23-5.5c0-4.81-4.45-8.74-9.95-8.74-5.5 0-9.95 3.9-9.95 8.74 0 4.85 4.43 8.77 9.93 8.77zm-13.2 4.09a6.69 6.69 0 0 1-1.83-4.56 7.09 7.09 0 0 1 3.64-6.02c1.12 4.69 5.81 8.22 11.39 8.22.39 0 .78-.03 1.15-.05-1.05 2.96-4.19 5.13-7.93 5.13-1.65 0-3.2-.42-4.5-1.18-1.18.7-2.44.68-3.17.58-.21-.03-.27-.3-.08-.42a3.34 3.34 0 0 0 1.33-1.7z"/>
        <path id="bqf3b"
              d="M319.46 161.74h-2.98v-2.99a.3.3 0 1 0-.6 0v2.99h-2.98a.3.3 0 1 0 0 .58h2.99v2.99a.3.3 0 0 0 .59 0v-2.99h2.98a.3.3 0 0 0 0-.58"/>
    </defs>
    <g>
        <g transform="translate(-301 -154)">
            <g>
                <use fill="#6f6e8d" xlink:href="#bqf3a"/>
            </g>
            <g>
                <use fill="#fff" xlink:href="#bqf3b"/>
                <use fill="#fff" fill-opacity="0" stroke="#fff" stroke-miterlimit="50" stroke-width=".58"
                     xlink:href="#bqf3b"/>
            </g>
        </g>
    </g>
</svg>
