<svg xmlns="http://www.w3.org/2000/svg" xmlns:xlink="http://www.w3.org/1999/xlink" width="24" height="38"
     viewBox="0 0 24 38">
    <defs>
        <path id="adffa"
              d="M566 536.16c0-1.2.97-2.16 2.16-2.16h19.68c1.2 0 2.16.97 2.16 2.16v33.68c0 1.2-.97 2.16-2.16 2.16h-19.68c-1.2 0-2.16-.97-2.16-2.16z"/>
        <path id="adffb"
              d="M570.27 562.77c-.4 0-.74-.17-.74-.4 0-.22.34-.41.74-.41h14.77c.4 0 .73.19.73.4 0 .24-.33.41-.73.41z"/>
        <path id="adffc"
              d="M570.27 565.64c-.4 0-.74-.17-.74-.4 0-.22.34-.41.74-.41h14.77c.4 0 .73.19.73.4 0 .24-.33.41-.73.41z"/>
        <path id="adffe"
              d="M577.66 543.63h-2.49c.13-.37.26-.71.4-1.03.59-1.23 1.33-1.97 2.09-2.15zm.7-3.18c.75.18 1.5.92 2.08 2.15.14.32.27.66.4 1.03h-2.49zm-3.42 1.85c-.2.4-.37.85-.52 1.34h-2.69a7.78 7.78 0 0 1 4.3-2.98c-.42.44-.79.99-1.1 1.64zm9.34 1.34h-2.69c-.15-.49-.33-.93-.52-1.34-.3-.65-.67-1.2-1.08-1.64a7.78 7.78 0 0 1 4.29 2.98zm-10.06.7c-.27 1.09-.41 2.3-.44 3.6h-3.54c.06-1.31.43-2.53 1.04-3.6zm3.44 0v3.6h-3.18c.03-1.3.2-2.53.49-3.6zm.7 0h2.68c.29 1.07.46 2.3.5 3.6h-3.19zm6.37 0c.6 1.07.98 2.29 1.04 3.6h-3.54c-.03-1.3-.17-2.51-.44-3.6zm-10.95 4.31c.03 1.29.17 2.5.44 3.6h-2.95a7.93 7.93 0 0 1-1.03-3.6zm3.88 0v3.6h-2.7a15.36 15.36 0 0 1-.48-3.6zm.7 0h3.17a15.4 15.4 0 0 1-.49 3.6h-2.69zm7.41 0a7.93 7.93 0 0 1-1.03 3.6h-2.95c.27-1.1.41-2.31.44-3.6zm-11.35 4.3c.15.49.33.92.52 1.33.3.66.68 1.21 1.1 1.65a7.77 7.77 0 0 1-4.31-2.97zm3.24 0v3.2c-.76-.19-1.5-.94-2.09-2.18a9.3 9.3 0 0 1-.4-1.01zm.7 0h2.48c-.13.37-.26.7-.4 1.02-.59 1.24-1.33 2-2.09 2.18zm5.92 0a7.77 7.77 0 0 1-4.3 2.98c.41-.44.78-1 1.1-1.65.18-.4.36-.84.51-1.32z"/>
        <clipPath id="adffd">
            <use fill="#fff" xlink:href="#adffa"/>
        </clipPath>
    </defs>
    <g>
        <g transform="translate(-566 -534)">
            <g>
                <use fill="#036da1" xlink:href="#adffb"/>
            </g>
            <g>
                <use fill="#036da1" xlink:href="#adffc"/>
            </g>
            <g>
                <use fill="#fff" fill-opacity="0" stroke="#adc9f0" stroke-miterlimit="50" stroke-width="1.44"
                     clip-path="url(&quot;#adffd&quot;)" xlink:href="#adffa"/>
            </g>
            <g>
                <use fill="#183e7a" xlink:href="#adffe"/>
            </g>
        </g>
    </g>
</svg>
