<svg id="SVGDoc" width="29" height="29" xmlns="http://www.w3.org/2000/svg" version="1.1"
     xmlns:xlink="http://www.w3.org/1999/xlink" xmlns:avocode="https://avocode.com/" viewBox="0 0 29 29">
    <defs>
        <path d="M1177,295.5c0,-7.45584 6.04416,-13.5 13.5,-13.5c7.45584,0 13.5,6.04416 13.5,13.5c0,7.45584 -6.04416,13.5 -13.5,13.5c-7.45584,0 -13.5,-6.04416 -13.5,-13.5z"
              id="Path-0"/>
        <path d="M1190.99553,289c-1.96988,0 -3.57553,1.316 -3.97506,2.9569c-0.09459,0.36907 0.14941,0.79293 0.51012,0.8861c0.3607,0.09366 0.77153,-0.16076 0.85906,-0.53152c0.21458,-0.88127 1.27741,-1.8632 2.60588,-1.8632c0.65459,0 1.34141,0.24644 1.82565,0.64858c0.48423,0.40238 0.76541,0.92038 0.76541,1.52383c0,0.79245 -0.15741,1.14824 -0.368,1.42559c-0.21036,0.27734 -0.5473,0.49313 -0.98636,0.81465c-0.43905,0.32176 -0.96141,0.7659 -1.33976,1.48617c-0.37812,0.72028 -0.59624,1.68459 -0.59624,3.03221c-0.0367,0.39997 0.3113,0.79197 0.70306,0.79197c0.39153,0 0.73953,-0.392 0.70306,-0.79197c0,-1.18686 0.19459,-1.88952 0.43412,-2.34597c0.23976,-0.4562 0.53553,-0.70627 0.92024,-0.98796c0.38447,-0.28193 0.87341,-0.57183 1.28094,-1.1089c0.40729,-0.53731 0.66235,-1.29789 0.66235,-2.31579c0,-1.08621 -0.54471,-2.02397 -1.29553,-2.64769c-0.75082,-0.62348 -1.71765,-0.973 -2.70894,-0.973M1191.00783,301.06897c-0.523,0 -0.94713,0.43231 -0.94713,0.96551c0,0.53321 0.42413,0.96552 0.94713,0.96552c0.52324,0 0.94737,-0.43231 0.94737,-0.96552c0,-0.5332 -0.42413,-0.96551 -0.94737,-0.96551"
              id="Path-1"/>
    </defs>
    <desc>Generated with Avocode.</desc>
    <g transform="matrix(1,0,0,1,-1176,-281)">
        <g>
            <title>Add Icon</title>
            <g>
                <title>Oval 5 Copy</title>
                <use xlink:href="#Path-0" fill="#ffffff" fill-opacity="0.5"/>
                <use xlink:href="#Path-0" fill-opacity="0" fill="#ffffff" stroke-linejoin="miter" stroke-linecap="butt"
                     stroke-opacity="0.3" stroke="#c2c2c2" stroke-miterlimit="50" stroke-width="1.6"/>
            </g>
            <g>
                <title>Fill 1</title>
                <use xlink:href="#Path-1" fill="#eb003e" fill-opacity="1"/>
            </g>
        </g>
    </g>
</svg>
