<?xml version="1.0" encoding="UTF-8"?>
<svg width="33px" height="26px" viewBox="0 0 33 26" version="1.1" xmlns="http://www.w3.org/2000/svg"
     xmlns:xlink="http://www.w3.org/1999/xlink">
    <!-- Generator: sketchtool 52 (66869) - http://www.bohemiancoding.com/sketch -->
    <title>9E746978-7F74-4ED1-B272-6713AB750166</title>
    <desc>Created with sketchtool.</desc>
    <defs>
        <polygon id="path-1"
                 points="0.0328705882 0.163494118 11.4034196 0.163494118 11.4034196 16.8235294 0.0328705882 16.8235294"></polygon>
        <polygon id="path-3"
                 points="0.0804294118 0.192356303 29.827902 0.192356303 29.827902 14.3350454 0.0804294118 14.3350454"></polygon>
        <polygon id="path-5" points="0 0.080097479 16.4257824 0.080097479 16.4257824 22.5041143 0 22.5041143"></polygon>
    </defs>
    <g id="Page-1" stroke="none" stroke-width="1" fill="none" fill-rule="evenodd">
        <g id="Choose-Portfolio_Overview" transform="translate(-309.000000, -374.000000)">
            <g id="Payment-Method-Copy" transform="translate(280.000000, 324.000000)">
                <g id="Group-Copy-3" transform="translate(29.000000, 50.000000)">
                    <g id="Group-10">
                        <g id="Group-3" transform="translate(16.392157, 8.984202)">
                            <mask id="mask-2" fill="white">
                                <use xlink:href="#path-1"></use>
                            </mask>
                            <g id="Clip-2"></g>
                            <path d="M9.9861451,0.525527731 L9.98592941,0.523779832 L9.68763529,0.163494118 L0.0328705882,9.93993109 L0.0335176471,16.823595 L11.3339686,5.37529244 C11.3796941,5.07290588 11.4034196,4.76330924 11.4034196,4.44803193 C11.4034196,2.95292269 10.8702431,1.58409916 9.9861451,0.525527731"
                                  id="Fill-1" fill="#1FCCBF" mask="url(#mask-2)"></path>
                        </g>
                        <g id="Group-6" transform="translate(3.019608, 0.026218)">
                            <mask id="mask-4" fill="white">
                                <use xlink:href="#path-3"></use>
                            </mask>
                            <g id="Clip-5"></g>
                            <path d="M22.4106451,0.192356303 L4.3941549,0.192356303 L0.0804294118,5.40000336 L0.0808607843,5.40044034 L1.77270392,3.35736471 C1.70476275,3.72398655 1.66874314,4.10196975 1.66874314,4.48825546 C1.66874314,6.12581849 2.32593922,7.63469244 3.36662549,8.72887731 L3.75097843,9.11822185 L6.77511569,5.46751597 L20.0357235,5.47013782 L23.0602922,9.12149916 L23.3585863,9.48178487 L23.358802,9.48353277 C24.2426843,10.5421042 24.7760765,11.9109277 24.7760765,13.406037 C24.7760765,13.7213143 24.7521353,14.0309109 24.7066255,14.3332975 C24.7066255,14.3339529 24.7064098,14.3346084 24.7064098,14.3350454 L26.1594882,12.8630958 L29.8280961,9.1468437 L22.4106451,0.192356303 Z"
                                  id="Fill-4" fill="#183E7A" mask="url(#mask-4)"></path>
                        </g>
                        <g id="Group-9" transform="translate(0.000000, 3.303529)">
                            <mask id="mask-6" fill="white">
                                <use xlink:href="#path-5"></use>
                            </mask>
                            <g id="Clip-8"></g>
                            <path d="M16.4249196,15.6206689 L6.38644902,5.45182857 C6.38644902,5.45182857 6.38644902,5.45182857 6.38623333,5.45161008 C5.34554706,4.35742521 4.68835098,2.84855126 4.68835098,1.21098824 C4.68835098,0.824484034 4.72437059,0.44650084 4.79231176,0.080097479 L3.10046863,2.12317311 L3.10003725,2.12273613 L-2.15686275e-05,5.86498824 L16.4257824,22.5041143 L16.4249196,15.6206689 Z"
                                  id="Fill-7" fill="#036DA1" mask="url(#mask-6)"></path>
                        </g>
                    </g>
                </g>
            </g>
        </g>
    </g>
</svg>
